<mxfile host="app.diagrams.net" modified="2022-11-20T07:57:15.162Z" agent="5.0 (Windows NT 10.0; Win64; x64) AppleWebKit/537.36 (KHTML, like Gecko) Chrome/107.0.0.0 Safari/537.36 Edg/107.0.1418.42" etag="UAqHRbSIHtkGHA7uP2MF" version="20.5.3" type="github">
  <diagram id="Ubsr9lHaoQ69G1aPTO2z" name="第 1 页">
    <mxGraphModel dx="1087" dy="588" grid="0" gridSize="10" guides="1" tooltips="1" connect="1" arrows="1" fold="1" page="1" pageScale="1" pageWidth="827" pageHeight="1169" math="0" shadow="0">
      <root>
        <mxCell id="0" />
        <mxCell id="1" parent="0" />
        <mxCell id="SLFcr6rwGLky21djmuVq-8" style="edgeStyle=orthogonalEdgeStyle;rounded=0;orthogonalLoop=1;jettySize=auto;html=1;exitX=1;exitY=0.5;exitDx=0;exitDy=0;entryX=0;entryY=0.5;entryDx=0;entryDy=0;" edge="1" parent="1" source="SLFcr6rwGLky21djmuVq-1" target="SLFcr6rwGLky21djmuVq-7">
          <mxGeometry relative="1" as="geometry" />
        </mxCell>
        <mxCell id="SLFcr6rwGLky21djmuVq-1" value="V2" style="ellipse;whiteSpace=wrap;html=1;aspect=fixed;" vertex="1" parent="1">
          <mxGeometry x="90" y="30" width="30" height="30" as="geometry" />
        </mxCell>
        <mxCell id="SLFcr6rwGLky21djmuVq-4" style="edgeStyle=orthogonalEdgeStyle;rounded=0;orthogonalLoop=1;jettySize=auto;html=1;exitX=1;exitY=0.5;exitDx=0;exitDy=0;entryX=0;entryY=0.5;entryDx=0;entryDy=0;" edge="1" parent="1" source="SLFcr6rwGLky21djmuVq-2" target="SLFcr6rwGLky21djmuVq-1">
          <mxGeometry relative="1" as="geometry" />
        </mxCell>
        <mxCell id="SLFcr6rwGLky21djmuVq-2" value="V1" style="ellipse;whiteSpace=wrap;html=1;aspect=fixed;" vertex="1" parent="1">
          <mxGeometry x="20" y="30" width="30" height="30" as="geometry" />
        </mxCell>
        <mxCell id="SLFcr6rwGLky21djmuVq-5" value="V4" style="ellipse;whiteSpace=wrap;html=1;aspect=fixed;" vertex="1" parent="1">
          <mxGeometry x="230" y="30" width="30" height="30" as="geometry" />
        </mxCell>
        <mxCell id="SLFcr6rwGLky21djmuVq-6" style="edgeStyle=orthogonalEdgeStyle;rounded=0;orthogonalLoop=1;jettySize=auto;html=1;exitX=1;exitY=0.5;exitDx=0;exitDy=0;entryX=0;entryY=0.5;entryDx=0;entryDy=0;" edge="1" parent="1" source="SLFcr6rwGLky21djmuVq-7" target="SLFcr6rwGLky21djmuVq-5">
          <mxGeometry relative="1" as="geometry" />
        </mxCell>
        <mxCell id="SLFcr6rwGLky21djmuVq-7" value="V3" style="ellipse;whiteSpace=wrap;html=1;aspect=fixed;" vertex="1" parent="1">
          <mxGeometry x="160" y="30" width="30" height="30" as="geometry" />
        </mxCell>
        <mxCell id="SLFcr6rwGLky21djmuVq-9" style="edgeStyle=orthogonalEdgeStyle;rounded=0;orthogonalLoop=1;jettySize=auto;html=1;exitX=1;exitY=0.5;exitDx=0;exitDy=0;entryX=0;entryY=0.5;entryDx=0;entryDy=0;" edge="1" parent="1" source="SLFcr6rwGLky21djmuVq-10" target="SLFcr6rwGLky21djmuVq-15">
          <mxGeometry relative="1" as="geometry" />
        </mxCell>
        <mxCell id="SLFcr6rwGLky21djmuVq-10" value="V5" style="ellipse;whiteSpace=wrap;html=1;aspect=fixed;" vertex="1" parent="1">
          <mxGeometry x="90" y="70" width="30" height="30" as="geometry" />
        </mxCell>
        <mxCell id="SLFcr6rwGLky21djmuVq-11" style="edgeStyle=orthogonalEdgeStyle;rounded=0;orthogonalLoop=1;jettySize=auto;html=1;exitX=1;exitY=0.5;exitDx=0;exitDy=0;entryX=0;entryY=0.5;entryDx=0;entryDy=0;" edge="1" parent="1" source="SLFcr6rwGLky21djmuVq-12" target="SLFcr6rwGLky21djmuVq-10">
          <mxGeometry relative="1" as="geometry" />
        </mxCell>
        <mxCell id="SLFcr6rwGLky21djmuVq-12" value="V2" style="ellipse;whiteSpace=wrap;html=1;aspect=fixed;" vertex="1" parent="1">
          <mxGeometry x="20" y="70" width="30" height="30" as="geometry" />
        </mxCell>
        <mxCell id="SLFcr6rwGLky21djmuVq-13" value="V6" style="ellipse;whiteSpace=wrap;html=1;aspect=fixed;" vertex="1" parent="1">
          <mxGeometry x="230" y="70" width="30" height="30" as="geometry" />
        </mxCell>
        <mxCell id="SLFcr6rwGLky21djmuVq-14" style="edgeStyle=orthogonalEdgeStyle;rounded=0;orthogonalLoop=1;jettySize=auto;html=1;exitX=1;exitY=0.5;exitDx=0;exitDy=0;entryX=0;entryY=0.5;entryDx=0;entryDy=0;" edge="1" parent="1" source="SLFcr6rwGLky21djmuVq-15" target="SLFcr6rwGLky21djmuVq-13">
          <mxGeometry relative="1" as="geometry" />
        </mxCell>
        <mxCell id="SLFcr6rwGLky21djmuVq-15" value="V3" style="ellipse;whiteSpace=wrap;html=1;aspect=fixed;" vertex="1" parent="1">
          <mxGeometry x="160" y="70" width="30" height="30" as="geometry" />
        </mxCell>
        <mxCell id="SLFcr6rwGLky21djmuVq-32" style="edgeStyle=orthogonalEdgeStyle;rounded=0;orthogonalLoop=1;jettySize=auto;html=1;exitX=0.5;exitY=1;exitDx=0;exitDy=0;entryX=0.5;entryY=0;entryDx=0;entryDy=0;" edge="1" parent="1" source="SLFcr6rwGLky21djmuVq-30" target="SLFcr6rwGLky21djmuVq-31">
          <mxGeometry relative="1" as="geometry" />
        </mxCell>
        <mxCell id="SLFcr6rwGLky21djmuVq-30" value="V1" style="ellipse;whiteSpace=wrap;html=1;aspect=fixed;" vertex="1" parent="1">
          <mxGeometry x="110" y="180" width="30" height="30" as="geometry" />
        </mxCell>
        <mxCell id="SLFcr6rwGLky21djmuVq-36" style="edgeStyle=orthogonalEdgeStyle;rounded=0;orthogonalLoop=1;jettySize=auto;html=1;exitX=0.5;exitY=1;exitDx=0;exitDy=0;" edge="1" parent="1" source="SLFcr6rwGLky21djmuVq-31" target="SLFcr6rwGLky21djmuVq-34">
          <mxGeometry relative="1" as="geometry" />
        </mxCell>
        <mxCell id="SLFcr6rwGLky21djmuVq-40" style="edgeStyle=orthogonalEdgeStyle;rounded=0;orthogonalLoop=1;jettySize=auto;html=1;exitX=1;exitY=0.5;exitDx=0;exitDy=0;entryX=0;entryY=0.5;entryDx=0;entryDy=0;" edge="1" parent="1" source="SLFcr6rwGLky21djmuVq-31" target="SLFcr6rwGLky21djmuVq-37">
          <mxGeometry relative="1" as="geometry" />
        </mxCell>
        <mxCell id="SLFcr6rwGLky21djmuVq-31" value="V2" style="ellipse;whiteSpace=wrap;html=1;aspect=fixed;" vertex="1" parent="1">
          <mxGeometry x="110" y="240" width="30" height="30" as="geometry" />
        </mxCell>
        <mxCell id="SLFcr6rwGLky21djmuVq-33" style="edgeStyle=orthogonalEdgeStyle;rounded=0;orthogonalLoop=1;jettySize=auto;html=1;exitX=0.5;exitY=1;exitDx=0;exitDy=0;entryX=0.5;entryY=0;entryDx=0;entryDy=0;" edge="1" parent="1" source="SLFcr6rwGLky21djmuVq-34" target="SLFcr6rwGLky21djmuVq-35">
          <mxGeometry relative="1" as="geometry" />
        </mxCell>
        <mxCell id="SLFcr6rwGLky21djmuVq-42" style="edgeStyle=none;rounded=0;orthogonalLoop=1;jettySize=auto;html=1;exitX=1;exitY=0.5;exitDx=0;exitDy=0;entryX=0;entryY=0.5;entryDx=0;entryDy=0;" edge="1" parent="1" source="SLFcr6rwGLky21djmuVq-34" target="SLFcr6rwGLky21djmuVq-38">
          <mxGeometry relative="1" as="geometry" />
        </mxCell>
        <mxCell id="SLFcr6rwGLky21djmuVq-34" value="V3" style="ellipse;whiteSpace=wrap;html=1;aspect=fixed;" vertex="1" parent="1">
          <mxGeometry x="110" y="300" width="30" height="30" as="geometry" />
        </mxCell>
        <mxCell id="SLFcr6rwGLky21djmuVq-35" value="V4" style="ellipse;whiteSpace=wrap;html=1;aspect=fixed;" vertex="1" parent="1">
          <mxGeometry x="110" y="360" width="30" height="30" as="geometry" />
        </mxCell>
        <mxCell id="SLFcr6rwGLky21djmuVq-41" style="rounded=0;orthogonalLoop=1;jettySize=auto;html=1;exitX=0.5;exitY=1;exitDx=0;exitDy=0;entryX=1;entryY=0.5;entryDx=0;entryDy=0;" edge="1" parent="1" source="SLFcr6rwGLky21djmuVq-37" target="SLFcr6rwGLky21djmuVq-34">
          <mxGeometry relative="1" as="geometry" />
        </mxCell>
        <mxCell id="SLFcr6rwGLky21djmuVq-37" value="V5" style="ellipse;whiteSpace=wrap;html=1;aspect=fixed;" vertex="1" parent="1">
          <mxGeometry x="170" y="240" width="30" height="30" as="geometry" />
        </mxCell>
        <mxCell id="SLFcr6rwGLky21djmuVq-38" value="V6" style="ellipse;whiteSpace=wrap;html=1;aspect=fixed;" vertex="1" parent="1">
          <mxGeometry x="170" y="300" width="30" height="30" as="geometry" />
        </mxCell>
        <mxCell id="SLFcr6rwGLky21djmuVq-43" value="" style="shape=flexArrow;endArrow=classic;html=1;rounded=0;" edge="1" parent="1">
          <mxGeometry width="50" height="50" relative="1" as="geometry">
            <mxPoint x="225" y="249.41" as="sourcePoint" />
            <mxPoint x="265" y="249.41" as="targetPoint" />
          </mxGeometry>
        </mxCell>
        <mxCell id="SLFcr6rwGLky21djmuVq-44" value="" style="shape=flexArrow;endArrow=classic;html=1;rounded=0;" edge="1" parent="1">
          <mxGeometry width="50" height="50" relative="1" as="geometry">
            <mxPoint x="129.9999999999999" y="110" as="sourcePoint" />
            <mxPoint x="130" y="160" as="targetPoint" />
          </mxGeometry>
        </mxCell>
        <mxCell id="SLFcr6rwGLky21djmuVq-47" value="&lt;b&gt;&lt;font style=&quot;font-size: 19px;&quot;&gt;GNN&lt;/font&gt;&lt;/b&gt;" style="rounded=0;whiteSpace=wrap;html=1;" vertex="1" parent="1">
          <mxGeometry x="290" y="100" width="70" height="300" as="geometry" />
        </mxCell>
        <mxCell id="SLFcr6rwGLky21djmuVq-50" value="" style="shape=flexArrow;endArrow=classic;html=1;rounded=0;" edge="1" parent="1">
          <mxGeometry width="50" height="50" relative="1" as="geometry">
            <mxPoint x="382" y="249.79999999999995" as="sourcePoint" />
            <mxPoint x="422" y="249.79999999999995" as="targetPoint" />
          </mxGeometry>
        </mxCell>
        <mxCell id="SLFcr6rwGLky21djmuVq-51" value="&lt;b&gt;&lt;font style=&quot;font-size: 16px;&quot;&gt;learn&lt;/font&gt;&lt;/b&gt;" style="rounded=0;whiteSpace=wrap;html=1;" vertex="1" parent="1">
          <mxGeometry x="440" y="100" width="70" height="300" as="geometry" />
        </mxCell>
        <mxCell id="SLFcr6rwGLky21djmuVq-52" value="" style="shape=flexArrow;endArrow=classic;html=1;rounded=0;" edge="1" parent="1">
          <mxGeometry width="50" height="50" relative="1" as="geometry">
            <mxPoint x="540" y="249.79999999999995" as="sourcePoint" />
            <mxPoint x="580" y="249.79999999999995" as="targetPoint" />
          </mxGeometry>
        </mxCell>
        <mxCell id="SLFcr6rwGLky21djmuVq-53" value="&lt;font style=&quot;font-size: 14px;&quot;&gt;&lt;b&gt;Predict&lt;/b&gt;&lt;/font&gt;" style="rounded=0;whiteSpace=wrap;html=1;" vertex="1" parent="1">
          <mxGeometry x="598" y="100" width="70" height="300" as="geometry" />
        </mxCell>
        <mxCell id="SLFcr6rwGLky21djmuVq-54" value="" style="shape=flexArrow;endArrow=classic;html=1;rounded=0;" edge="1" parent="1">
          <mxGeometry width="50" height="50" relative="1" as="geometry">
            <mxPoint x="689.9999999999998" y="249.66000000000008" as="sourcePoint" />
            <mxPoint x="729.9999999999998" y="249.66000000000008" as="targetPoint" />
          </mxGeometry>
        </mxCell>
        <mxCell id="SLFcr6rwGLky21djmuVq-55" value="V1" style="ellipse;whiteSpace=wrap;html=1;aspect=fixed;" vertex="1" parent="1">
          <mxGeometry x="740" y="140" width="30" height="30" as="geometry" />
        </mxCell>
        <mxCell id="SLFcr6rwGLky21djmuVq-56" value="V2" style="ellipse;whiteSpace=wrap;html=1;aspect=fixed;" vertex="1" parent="1">
          <mxGeometry x="740" y="180" width="30" height="30" as="geometry" />
        </mxCell>
        <mxCell id="SLFcr6rwGLky21djmuVq-57" value="V3" style="ellipse;whiteSpace=wrap;html=1;aspect=fixed;" vertex="1" parent="1">
          <mxGeometry x="740" y="220" width="30" height="30" as="geometry" />
        </mxCell>
        <mxCell id="SLFcr6rwGLky21djmuVq-58" value="V4" style="ellipse;whiteSpace=wrap;html=1;aspect=fixed;" vertex="1" parent="1">
          <mxGeometry x="740" y="260" width="30" height="30" as="geometry" />
        </mxCell>
        <mxCell id="SLFcr6rwGLky21djmuVq-59" value="V5" style="ellipse;whiteSpace=wrap;html=1;aspect=fixed;" vertex="1" parent="1">
          <mxGeometry x="740" y="300" width="30" height="30" as="geometry" />
        </mxCell>
        <mxCell id="SLFcr6rwGLky21djmuVq-60" value="V6" style="ellipse;whiteSpace=wrap;html=1;aspect=fixed;" vertex="1" parent="1">
          <mxGeometry x="740" y="340" width="30" height="30" as="geometry" />
        </mxCell>
        <mxCell id="SLFcr6rwGLky21djmuVq-64" value="构建会话" style="endArrow=classic;startArrow=classic;html=1;rounded=0;fontSize=16;" edge="1" parent="1">
          <mxGeometry width="50" height="50" relative="1" as="geometry">
            <mxPoint x="61" y="448" as="sourcePoint" />
            <mxPoint x="222" y="448" as="targetPoint" />
          </mxGeometry>
        </mxCell>
        <mxCell id="SLFcr6rwGLky21djmuVq-65" value="学习阶段" style="endArrow=classic;startArrow=classic;html=1;rounded=0;fontSize=16;" edge="1" parent="1">
          <mxGeometry x="-0.007" width="50" height="50" relative="1" as="geometry">
            <mxPoint x="264" y="448" as="sourcePoint" />
            <mxPoint x="548" y="448" as="targetPoint" />
            <mxPoint as="offset" />
          </mxGeometry>
        </mxCell>
        <mxCell id="SLFcr6rwGLky21djmuVq-66" value="预测结果" style="endArrow=classic;startArrow=classic;html=1;rounded=0;fontSize=16;" edge="1" parent="1">
          <mxGeometry width="50" height="50" relative="1" as="geometry">
            <mxPoint x="572" y="447" as="sourcePoint" />
            <mxPoint x="771" y="447" as="targetPoint" />
          </mxGeometry>
        </mxCell>
      </root>
    </mxGraphModel>
  </diagram>
</mxfile>
